<?xml version="1.0" encoding="UTF-8"?> <svg xmlns="http://www.w3.org/2000/svg" xmlns:xlink="http://www.w3.org/1999/xlink" width="256pt" height="256pt" viewBox="0 0 256 256" version="1.1"><g id="surface1"><path style=" stroke:none;fill-rule:nonzero;fill:rgb(0%,93.72549%,17.647059%);fill-opacity:1;" d="M 251.648438 168.472656 C 250.355469 162.230469 245.265625 157.28125 238.980469 156.140625 C 231.421875 154.792969 224.113281 158.722656 221.203125 165.757812 C 220.683594 167.019531 219.269531 167.867188 217.648438 167.867188 L 205.132812 167.960938 L 211.558594 142.238281 C 211.851562 141.078125 212 139.882812 212 138.683594 C 212 130.585938 205.410156 124 197.316406 124 L 137.65625 124 L 157.28125 104.375 L 155.199219 101.601562 C 139.421875 80.5625 114.300781 68 88 68 C 73.476562 68 59.808594 71.707031 47.878906 78.222656 L 41.660156 72 C 36.503906 66.84375 27.496094 66.84375 22.34375 72 L 8 86.34375 C 5.421875 88.925781 4 92.355469 4 96 C 4 99.644531 5.421875 103.074219 8 105.65625 L 14.222656 111.878906 C 7.707031 123.808594 4 137.480469 4 152 C 4 178.296875 16.558594 203.414062 37.601562 219.199219 L 40.375 221.285156 L 70.304688 191.355469 C 72.660156 199.074219 76.773438 206.09375 82.410156 212.003906 L 76 212.003906 C 71.589844 212.003906 68 215.59375 68 220.003906 L 68 228.003906 C 68 232.414062 71.589844 236.003906 76 236.003906 L 76.875 236.003906 L 79.359375 245.941406 C 80.253906 249.507812 83.445312 252 87.125 252 L 200.875 252 C 204.550781 252 207.742188 249.507812 208.636719 245.9375 L 211.125 236 L 212 236 C 216.410156 236 220 232.410156 220 228 L 220 220 C 220 215.589844 216.410156 212 212 212 L 174.503906 212 C 177.125 210.523438 179.65625 208.886719 182.039062 207.03125 L 201.382812 191.992188 L 217.675781 191.871094 C 219.265625 191.871094 220.683594 192.71875 221.203125 193.980469 C 223.71875 200.085938 229.554688 203.871094 235.992188 203.871094 C 236.976562 203.871094 237.976562 203.785156 238.976562 203.605469 C 245.257812 202.464844 250.347656 197.507812 251.644531 191.269531 C 252.476562 187.261719 251.820312 183.253906 249.847656 179.871094 C 251.828125 176.488281 252.480469 172.480469 251.648438 168.472656 Z M 13.660156 100 C 12.589844 98.929688 12 97.511719 12 96 C 12 94.488281 12.589844 93.070312 13.65625 92 L 28 77.65625 C 30.132812 75.515625 33.859375 75.515625 36 77.65625 L 40.859375 82.519531 C 32.078125 88.496094 24.492188 96.085938 18.515625 104.863281 Z M 39.679688 210.660156 C 22.289062 196.3125 12 174.636719 12 152 C 12 110.09375 46.09375 76 88 76 C 110.640625 76 132.316406 86.289062 146.664062 103.683594 Z M 88.910156 207.253906 C 82.714844 201.054688 78.605469 193.308594 76.894531 184.761719 L 129.65625 132 L 197.316406 132 C 201 132 204 135 204 138.683594 C 204 139.230469 203.933594 139.777344 203.800781 140.308594 L 197.109375 167.0625 L 161.152344 157.257812 C 158.09375 156.421875 154.929688 156 151.746094 156 C 132.035156 156 116 172.039062 116 191.753906 C 116 192.269531 116.070312 192.769531 116.101562 193.28125 C 115.308594 194.160156 114.652344 195.160156 114.066406 196.210938 C 113.390625 196.09375 112.707031 196 112 196 C 105.382812 196 100 201.382812 100 208 C 100 209.40625 100.289062 210.742188 100.734375 212 L 93.65625 212 Z M 128 212 C 126.445312 212 124.957031 211.511719 123.671875 210.683594 C 123.871094 209.816406 124 208.925781 124 208 C 124 204.988281 122.84375 202.265625 121.003906 200.152344 C 122.378906 197.640625 125.007812 196 128 196 C 132.410156 196 136 199.589844 136 204 C 136 208.410156 132.410156 212 128 212 Z M 108 208 C 108 205.792969 109.796875 204 112 204 C 114.203125 204 116 205.792969 116 208 C 116 210.207031 114.203125 212 112 212 C 109.796875 212 108 210.207031 108 208 Z M 200.875 244 L 87.125 244 L 85.125 236 L 202.875 236 Z M 212 220 L 212.003906 228 L 76 228 L 76 220 Z M 196 186.042969 L 177.132812 200.71875 C 167.78125 207.992188 156.101562 212 144.253906 212 L 141.777344 212 C 143.152344 209.636719 144 206.929688 144 204 C 144 195.175781 136.824219 188 128 188 C 126.6875 188 125.433594 188.207031 124.207031 188.503906 C 125.820312 174.726562 137.546875 164 151.746094 164 C 154.214844 164 156.671875 164.328125 159.046875 164.976562 L 196 175.054688 Z M 243.816406 189.640625 C 243.183594 192.671875 240.613281 195.175781 237.550781 195.722656 C 233.722656 196.410156 230.050781 194.449219 228.601562 190.929688 C 226.832031 186.640625 222.542969 183.867188 217.648438 183.867188 L 204 183.972656 L 204 175.972656 L 217.675781 175.871094 C 222.542969 175.871094 226.832031 173.101562 228.601562 168.808594 C 230.050781 165.292969 233.714844 163.3125 237.550781 164.015625 C 240.613281 164.566406 243.183594 167.070312 243.8125 170.101562 C 244.351562 172.703125 243.675781 175.289062 241.953125 177.183594 L 239.519531 179.871094 L 241.953125 182.558594 C 243.675781 184.457031 244.355469 187.039062 243.816406 189.640625 Z M 243.816406 189.640625 "></path><path style=" stroke:none;fill-rule:nonzero;fill:rgb(0%,93.72549%,17.647059%);fill-opacity:1;" d="M 157.171875 78.828125 L 162.828125 73.171875 L 155.796875 66.136719 C 153.347656 63.691406 152 60.4375 152 56.96875 C 152 49.816406 157.820312 44 164.972656 44 L 180 44 L 180 36 L 164.972656 36 C 153.40625 36 144 45.40625 144 56.96875 C 144 62.570312 146.179688 67.839844 150.144531 71.796875 Z M 157.171875 78.828125 "></path><path style=" stroke:none;fill-rule:nonzero;fill:rgb(0%,93.72549%,17.647059%);fill-opacity:1;" d="M 172 68 C 176.410156 68 180 71.589844 180 76 C 180 80.410156 176.410156 84 172 84 L 172 92 C 180.824219 92 188 84.824219 188 76 C 188 67.175781 180.824219 60 172 60 Z M 172 68 "></path><path style=" stroke:none;fill-rule:nonzero;fill:rgb(0%,93.72549%,17.647059%);fill-opacity:1;" d="M 212 50.421875 C 212 42.726562 215.820312 35.59375 222.21875 31.328125 L 217.785156 24.671875 C 209.152344 30.421875 204 40.050781 204 50.421875 L 204 52 L 212 52 Z M 212 50.421875 "></path><path style=" stroke:none;fill-rule:nonzero;fill:rgb(0%,93.72549%,17.647059%);fill-opacity:1;" d="M 197.167969 38.828125 L 202.828125 33.171875 L 198.96875 29.3125 C 197.054688 27.394531 196 24.847656 196 22.140625 C 196 16.550781 200.550781 12 206.144531 12 L 228 12 C 232.410156 12 236 15.589844 236 20 L 244 20 C 244 11.175781 236.824219 4 228 4 L 206.144531 4 C 196.140625 4 188 12.136719 188 22.140625 C 188 26.984375 189.886719 31.542969 193.3125 34.96875 Z M 197.167969 38.828125 "></path><path style=" stroke:none;fill-rule:nonzero;fill:rgb(0%,93.72549%,17.647059%);fill-opacity:1;" d="M 237.261719 36.203125 L 234.734375 43.796875 L 237.242188 44.628906 C 241.289062 45.976562 244 49.742188 244 54 C 244 58.257812 241.289062 62.023438 237.246094 63.371094 L 210.734375 72.207031 L 213.265625 79.792969 L 227.8125 74.945312 C 227.898438 75.671875 228 76.394531 228 77.136719 C 228 85.910156 221.449219 93.464844 212.757812 94.707031 L 187.3125 98.34375 C 178.585938 99.589844 172 107.179688 172 116 L 180 116 C 180 111.136719 183.632812 106.953125 188.445312 106.265625 L 213.886719 102.628906 C 226.492188 100.828125 235.996094 89.867188 235.996094 77.136719 C 235.996094 75.523438 235.824219 73.9375 235.527344 72.371094 L 239.777344 70.957031 C 247.089844 68.519531 252 61.703125 252 54 C 252 46.296875 247.089844 39.480469 239.777344 37.039062 Z M 237.261719 36.203125 "></path></g></svg> 